<svg height="512pt" viewBox="-131 0 512 512" width="512pt" xmlns="http://www.w3.org/2000/svg"><path d="m227.496094 268.609375c-11.179688-8.457031-26.632813-8.410156-37.757813.117187l-1.203125.917969c-11.257812 8.628907-26.921875 8.566407-38.109375-.15625l-.269531-.207031c-11.296875-8.804688-27.144531-8.773438-38.40625.074219-11.191406 8.792969-26.914062 8.886719-38.207031.230469l-1.195313-.914063c-11.09375-8.5-26.488281-8.578125-37.664062-.1875l-13.777344 9.644531v223.871094h220v-223.949219zm0 0" fill="#00ccf2"/><path d="m72.347656 268.671875 1.195313.914063c11.296875 8.65625 27.015625 8.5625 38.207031-.230469 11.261719-8.847657 27.109375-8.878907 38.40625-.074219l.269531.207031c11.1875 8.722657 26.851563 8.785157 38.109375.15625l1.203125-.917969c11.125-8.527343 26.578125-8.574218 37.757813-.117187l13.410156 9.445313v-26.054688c0-10.738281-2.425781-20.90625-6.746094-30h-206.507812c-4.320313 9.09375-6.746094 19.261719-6.746094 30v26.128906l13.777344-9.644531c11.175781-8.390625 26.570312-8.3125 37.664062.1875zm0 0" fill="#f9f9f9"/><g fill="#b0e7f8"><path d="m170.90625 182h-80c-27.921875 0-52.019531 16.351562-63.253906 40h206.507812c-11.238281-23.648438-35.332031-40-63.253906-40zm0 0"/><path d="m16.90625 10h40v40h-40zm0 0"/><path d="m142.019531 151.160156-87.75-31.933594 13.679688-37.589843 87.75 31.933593zm0 0"/></g><path d="m156.847656 15.757812c-19.917968-3.828124-40.152344-5.757812-60.433594-5.757812h-39.507812v40l-44.480469 75.613281c-6.867187 11.671875 1.550781 26.386719 15.09375 26.386719h1.484375c5.023438 0 9.804688-2.15625 13.128906-5.925781l76.199219-86.355469 17.226563 2.726562c14.339844 2.269532 21.5625 18.578126 13.597656 30.71875l-58.25 88.835938h80l43.859375-107.023438.140625-19.976562 16-25zm0 0" fill="#e1e3e9"/><path d="m200.1875 372h-9.960938c-5.503906 0-9.960937 4.476562-9.960937 10s4.457031 10 9.960937 10h9.960938c5.503906 0 9.960938-4.476562 9.960938-10s-4.457032-10-9.960938-10zm0 0"/><path d="m200.1875 332h-9.960938c-5.503906 0-9.960937 4.476562-9.960937 10s4.457031 10 9.960937 10h9.960938c5.503906 0 9.960938-4.476562 9.960938-10s-4.457032-10-9.960938-10zm0 0"/><path d="m200.1875 412h-9.960938c-5.503906 0-9.960937 4.476562-9.960937 10s4.457031 10 9.960937 10h9.960938c5.503906 0 9.960938-4.476562 9.960938-10s-4.457032-10-9.960938-10zm0 0"/><path d="m200.1875 452h-9.960938c-5.503906 0-9.960937 4.476562-9.960937 10s4.457031 10 9.960937 10h9.960938c5.503906 0 9.960938-4.476562 9.960938-10s-4.457032-10-9.960938-10zm0 0"/><path d="m144.257812 452.769531c-1.601562-1.007812-3.433593-1.539062-5.308593-1.539062-3.445313 0-6.605469 1.738281-8.4375 4.660156-1.414063 2.257813-1.875 4.9375-1.285157 7.539063.578126 2.609374 2.140626 4.832031 4.394532 6.25 1.601562 1.011718 3.433594 1.550781 5.308594 1.550781 3.445312 0 6.59375-1.75 8.4375-4.671875 1.414062-2.257813 1.875-4.929688 1.285156-7.539063s-2.140625-4.828125-4.394532-6.25zm0 0"/><path d="m242.316406 217.707031c-11.0625-23.367187-32.839844-39.773437-57.703125-44.386719l38.601563-94.550781c.484375-1.179687.734375-2.445312.746094-3.722656l.117187-17.089844 14.386719-22.566406c1.78125-2.792969 2.066406-6.289063.761718-9.335937-1.300781-3.046876-4.027343-5.25-7.269531-5.875l-73.78125-14.242188c-20.410156-3.941406-41.296875-5.9375-62.085937-5.9375h-79.210938c-5.5 0-9.960937 4.476562-9.960937 10v40c0 5.523438 4.460937 10 9.960937 10h22.429688l-35.476563 60.542969c-5.046875 8.613281-5.113281 18.933593-.167969 27.605469 9.171876 16.101562 33.640626 18.398437 45.816407 4.542968l16.316406-18.558594 35.652344 13.023438-16.355469 25.039062c-28.449219 2.007813-54.15625 19.417969-66.507812 45.515626-5.097657 10.769531-7.683594 22.308593-7.683594 34.289062v250c0 5.523438 4.460937 10 9.960937 10h219.175781c5.5 0 9.960938-4.476562 9.960938-10v-250c0-11.980469-2.585938-23.519531-7.683594-34.292969zm-215.476562-177.707031v-20h19.925781v20zm7.703125 99.460938c-3.464844 3.921874-10.980469 3.328124-13.585938-1.242188-.648437-1.136719-1.9375-4.144531.046875-7.535156l44.3125-75.613282c.019532-.03125.03125-.066406.046875-.097656.84375-1.476562 1.328125-3.269531 1.328125-4.972656v-30h29.398438c19.527344 0 39.148437 1.875 58.324218 5.578125l59.347657 11.457031-8.019531 12.574219c-1.011719 1.589844-1.558594 3.433594-1.570313 5.320313l-.125 18.042968-40.429687 99.027344h-54.570313l47.917969-73.351562c5.585937-8.550782 6.460937-19.242188 2.335937-28.59375-4.125-9.351563-12.59375-15.890626-22.660156-17.484376l-13.117187-2.085937c-.542969-.171875-1.105469-.3125-1.691407-.390625l-21.914062-3c-5.453125-.75-10.476563 3.082031-11.21875 8.554688-.742188 5.472656 3.074219 10.511718 8.523437 11.257812l.976563.132812c0 .003907-62.753907 71.394532-63.65625 72.421876zm100.582031-43.851563-26.84375-9.808594 13.492188-15.347656 11.757812 1.867187c3.402344.542969 6.15625 2.667969 7.550781 5.832032 1.394531 3.164062 1.113281 6.636718-.777343 9.53125zm-55.167969 22.414063 14.164063-16.113282 29.777344 10.882813-11.222657 17.183593zm10.644531 73.976562h79.699219c17.148438 0 33.320313 7.511719 44.515625 20h-168.730468c11.195312-12.488281 27.367187-20 44.515624-20zm-59.773437 60c0-6.902344 1.140625-13.605469 3.402344-20h82.949219c-2.226563 7.648438-4.71875 16.371094-7.078126 26.183594-.1875.105468-.375.210937-.558593.320312-1.5.902344-2.957031 1.90625-4.328125 2.988282-7.574219 5.972656-18.203125 6.039062-25.851563.15625-6.933593-5.332032-14.917969-8.777344-23.710937-9.296876-.046875-.003906-.089844-.007812-.132813-.007812-8.628906-.5-17.453125 1.847656-24.691406 6.585938zm199.246094 240h-199.246094v-208.664062l9.472656-6.660157c.089844-.0625.179688-.125.269531-.195312 5.054688-3.804688 11.433594-5.023438 17.347657-3.679688 2.894531.65625 5.675781 1.917969 8.132812 3.808594l1.195313.917969c10.957031 8.425781 25.070312 10.566406 37.632812 6.464844-2.898437 17.675781-4.324218 35.117187-4.316406 53.011718.011719 38.378906 3.296875 69.558594 9.792969 92.65625 1.203125 4.292969 5.140625 7.292969 9.582031 7.292969.90625 0 1.824219-.132813 2.710938-.382813 5.28125-1.5 8.367187-7.039062 6.882812-12.339843-6.007812-21.308594-9.054688-50.660157-9.042969-87.226563.015625-24.851562 2.921875-46.007812 6.710938-64.039062 5.632812-.910156 11.550781.488281 16.304687 4.207031l.265625.207031c14.71875 11.515625 35.339844 11.597656 50.152344.207032l1.195313-.921876c7.503906-5.769531 18.007812-5.800781 25.546874-.078124.089844.070312.179688.136718.273438.203124l9.136719 6.457032zm0-233.191406c-.058594-.039063-.121094-.074219-.179688-.113282-3.90625-2.480468-8.238281-4.273437-12.742187-5.308593-3.878906-.894531-7.886719-1.230469-11.859375-.972657-8.714844.566407-16.613281 4-23.488281 9.292969-7.613282 5.855469-18.214844 5.8125-25.785157-.105469l-.265625-.207031c-6.714844-5.25-15.167968-8.417969-23.691406-8.683593 1.773438-6.632813 3.558594-12.746094 5.203125-18.371094.230469-.792969.457031-1.570313.683594-2.339844h88.722656c2.261719 6.394531 3.40625 13.097656 3.40625 20v6.808594zm0 0"/></svg>